<svg width="515" height="96" viewBox="0 0 515 96" fill="none" xmlns="http://www.w3.org/2000/svg">
<path d="M490.497 37.0181L490.497 37.0181L490.495 37.0228C489.049 40.1427 488.041 44.2593 487.455 49.3517C487.408 49.753 487.072 50.0531 486.678 50.0531C486.257 50.0531 485.914 49.7157 485.907 49.295L485.601 31.0312C485.578 29.667 484.466 28.5731 483.102 28.5731H471.228C469.848 28.5731 468.728 29.6923 468.728 31.0731V63.0331V90.4331C468.728 91.8138 469.848 92.9331 471.228 92.9331H486.668C488.049 92.9331 489.168 91.8138 489.168 90.4331V63.7797C489.565 60.0755 490.391 57.0306 491.63 54.6279C492.948 52.227 494.679 50.4638 496.821 49.3155C499.057 48.1598 501.694 47.5731 504.748 47.5731C505.834 47.5731 507.086 47.6895 508.506 47.9263L508.521 47.9287L508.536 47.9303C508.951 47.974 509.356 48.0362 509.752 48.1168C510.6 48.2897 511.483 48.0973 512.166 47.6464C512.853 47.1928 513.365 46.4559 513.397 45.539L513.946 29.7867C513.99 28.5338 513.086 27.3827 511.778 27.2911C511.427 27.2665 511.092 27.2537 510.773 27.2531C509.971 27.1735 509.242 27.1331 508.588 27.1331C504.212 27.1331 500.488 27.9028 497.44 29.4683L497.44 29.4682L497.435 29.4709C494.446 31.0481 492.136 33.5753 490.497 37.0181Z" stroke="black"/>
<path d="M414.845 90.8388L414.848 90.8403C419.887 93.36 425.646 94.6131 432.112 94.6131C438.415 94.6131 444.089 93.4411 449.124 91.086L449.127 91.0845C454.26 88.6399 458.295 84.8888 461.224 79.8441C464.16 74.787 465.612 68.4135 465.612 60.7531C465.612 53.254 464.201 47.0021 461.346 42.0261C458.499 36.9825 454.547 33.1915 449.495 30.6659C444.456 28.1462 438.697 26.8931 432.232 26.8931C425.767 26.8931 420.01 28.1457 414.971 30.6644C409.918 33.1101 405.965 36.862 403.117 41.9058C400.262 46.8818 398.852 53.1338 398.852 60.6331C398.852 68.1336 400.263 74.4243 403.116 79.4789C405.963 84.521 409.874 88.3123 414.845 90.8388ZM443.64 51.4388L443.641 51.4429C444.656 54.2519 445.172 57.7503 445.172 61.9531C445.172 65.9167 444.696 69.2164 443.76 71.8667C442.828 74.5088 441.444 76.4531 439.628 77.741C437.81 78.9515 435.514 79.5731 432.712 79.5731C428.457 79.5731 425.171 77.9977 422.793 74.8545C420.485 71.6984 419.292 66.9046 419.292 60.3931C419.292 56.3482 419.768 53.0089 420.703 50.3595C421.636 47.7156 423.02 45.8155 424.829 44.6091L424.829 44.6091L424.833 44.6065C426.74 43.3098 428.999 42.6531 431.632 42.6531C434.747 42.6531 437.228 43.4306 439.119 44.9435L439.128 44.9503L439.137 44.9568C441.119 46.4052 442.626 48.5531 443.64 51.4388Z" stroke="black"/>
<path d="M367.141 88.4434L367.144 88.4471C370.793 92.5105 376.434 94.4931 383.956 94.4931C385.577 94.4931 387.434 94.3717 389.523 94.131C391.315 93.9974 393.234 93.6491 395.277 93.0894C396.349 92.796 397.056 91.8119 397.056 90.7227V77.9397C397.056 76.9455 396.476 76.1374 395.724 75.6442C394.973 75.1524 393.994 74.9316 393.082 75.1464C391.762 75.4568 390.361 75.6131 388.876 75.6131C386.23 75.6131 384.337 74.9908 383.104 73.8342C381.96 72.6856 381.336 70.8422 381.336 68.1931V46.7931C381.336 45.9647 382.008 45.2931 382.836 45.2931H394.076C395.457 45.2931 396.576 44.1738 396.576 42.7931V31.0731C396.576 29.6924 395.457 28.5731 394.076 28.5731H382.836C382.008 28.5731 381.336 27.9015 381.336 27.0731V17.0331C381.336 15.6524 380.217 14.5331 378.836 14.5331H371.595C370.382 14.5331 369.343 15.405 369.133 16.6005L367.864 23.8266L367.864 23.8266L367.862 23.8341C367.559 25.7324 366.782 26.9267 365.602 27.5512L365.602 27.5511L365.591 27.5573C364.417 28.2178 362.595 28.6134 360.068 28.6931H355.549C354.191 28.6931 353.082 29.7761 353.049 31.1331L352.785 42.1331C352.752 43.5369 353.88 44.6931 355.285 44.6931H360.236C361.065 44.6931 361.736 45.3647 361.736 46.1931V69.0331C361.736 77.8022 363.503 84.3094 367.141 88.4434Z" stroke="black"/>
<path d="M299.155 92.515L299.155 92.5151L299.165 92.5203C301.965 93.9201 305.164 94.6131 308.749 94.6131C312.57 94.6131 316.003 93.9218 319.038 92.5274L319.043 92.5249C322.145 91.0556 324.763 89.0523 326.891 86.5155C328.868 84.1727 330.419 81.6292 331.541 78.8858C331.688 78.5252 332.029 78.2931 332.398 78.2931C332.868 78.2931 333.261 78.6602 333.293 79.1354C333.45 81.416 333.663 83.6686 333.933 85.8932L333.933 85.8951C334.162 87.7299 334.392 89.3819 334.621 90.8507C334.811 92.0596 335.857 92.9331 337.071 92.9331H350.201C351.689 92.9331 352.844 91.6428 352.693 90.1667C352.469 87.9682 352.267 85.7923 352.088 83.6388C351.928 80.6835 351.768 77.7681 351.609 74.8925C351.529 71.9393 351.489 69.0261 351.489 66.1531V56.4331C351.489 49.6716 350.484 44.1132 348.443 39.7848C346.479 35.3668 343.4 32.1199 339.214 30.0667C335.12 27.9393 329.835 26.8931 323.389 26.8931C319.516 26.8931 315.839 27.2964 312.36 28.1051C308.951 28.836 305.898 30.0557 303.205 31.7683C300.514 33.4002 298.189 35.4807 296.234 38.007L296.233 38.0069L296.227 38.0151C294.716 40.0523 293.473 42.3755 292.495 44.9809C291.995 46.3146 292.782 47.7344 294.109 48.127L307.29 52.0256C308.626 52.4208 309.965 51.6434 310.482 50.427C311.044 49.1016 311.755 47.9321 312.611 46.9151C313.844 45.4515 315.303 44.3383 316.992 43.57C318.761 42.8014 320.731 42.4131 322.909 42.4131C326.05 42.4131 328.211 43.122 329.515 44.4266C330.863 45.7748 331.529 47.3684 331.529 49.2331C331.529 50.6674 331.153 51.6819 330.475 52.3595C329.764 53.0712 328.662 53.6383 327.117 54.0257C325.607 54.3433 323.699 54.7012 321.389 55.0994C316.581 55.8208 312.287 56.6632 308.51 57.6274C304.722 58.5144 301.442 59.6867 298.677 61.1499C295.961 62.5497 293.851 64.4918 292.36 66.9758L292.358 66.9802C290.94 69.3986 290.249 72.4533 290.249 76.1131C290.249 80.0188 291.022 83.387 292.592 86.197L292.592 86.197L292.596 86.2026C294.163 88.9251 296.353 91.0314 299.155 92.515ZM329.894 63.5114C330.52 63.3211 331.127 63.1081 331.718 62.8721L331.88 69.2799C331.884 69.4637 331.857 69.64 331.796 69.7996C331.259 71.2153 330.489 72.5335 329.483 73.7552C328.392 75.0801 327.187 76.2071 325.869 77.1388C324.544 77.9948 323.143 78.6955 321.663 79.2412C320.274 79.7035 318.89 79.9331 317.509 79.9331C315.209 79.9331 313.375 79.2843 311.962 78.0205C310.559 76.7653 309.849 75.1065 309.849 72.9931C309.849 71.3896 310.23 70.1965 310.933 69.3532C311.672 68.4669 312.679 67.7516 313.975 67.2173C315.38 66.6713 316.947 66.2398 318.678 65.925L318.687 65.9235L318.695 65.9217C320.528 65.5233 322.36 65.1647 324.193 64.846C326.133 64.5225 328.034 64.0776 329.894 63.5114Z" stroke="black"/>
<path d="M263.252 48.172L263.256 48.1786L263.26 48.1852C265.099 51.0202 266.06 55.6588 266.06 62.1931V90.4331C266.06 91.8138 267.179 92.9331 268.56 92.9331H284C285.38 92.9331 286.5 91.8138 286.5 90.4331V60.0331C286.5 48.6381 284.538 40.2249 280.52 34.8942C276.571 29.5473 270.77 26.8931 263.2 26.8931C259.138 26.8931 255.578 27.6646 252.536 29.2258C249.487 30.7103 246.981 33.0166 245.017 36.1261C243.213 38.9818 241.799 42.4463 240.768 46.5097C240.668 46.9015 240.321 47.1731 239.929 47.1731C239.466 47.1731 239.088 46.8004 239.082 46.3369L238.885 31.0408C238.867 29.6728 237.753 28.5731 236.385 28.5731H224.76C223.379 28.5731 222.26 29.6924 222.26 31.0731V54.2731V90.4331C222.26 91.8138 223.379 92.9331 224.76 92.9331H240.08C241.46 92.9331 242.58 91.8138 242.58 90.4331V63.6331C242.58 59.9152 243.054 56.5671 243.996 53.5836C244.935 50.6098 246.335 48.2486 248.182 46.4776C250.078 44.7351 252.471 43.8531 255.4 43.8531C258.912 43.8531 261.506 45.288 263.252 48.172Z" stroke="black"/>
<path d="M196.504 18.2972L196.512 18.3044L196.521 18.3112C198.64 19.9218 201.603 20.6931 205.344 20.6931C209.159 20.6931 212.129 19.9238 214.174 18.3052L214.176 18.3036C216.314 16.5932 217.364 14.1584 217.364 11.0731C217.364 7.99256 216.317 5.59376 214.175 3.96183C212.13 2.26216 209.158 1.45312 205.344 1.45312C201.599 1.45312 198.632 2.26629 196.512 3.96189C194.445 5.59935 193.444 8.04145 193.444 11.1931C193.444 14.1963 194.451 16.5872 196.504 18.2972ZM195.124 31.0731V90.4331C195.124 91.8138 196.243 92.9331 197.624 92.9331H212.944C214.324 92.9331 215.444 91.8138 215.444 90.4331V31.0731C215.444 29.6924 214.324 28.5731 212.944 28.5731H197.624C196.243 28.5731 195.124 29.6924 195.124 31.0731Z" stroke="black"/>
<path d="M168.339 8.03308V90.4331C168.339 91.8138 169.459 92.9331 170.839 92.9331H185.799C187.18 92.9331 188.299 91.8138 188.299 90.4331V8.03308C188.299 6.65237 187.18 5.53308 185.799 5.53308H170.839C169.459 5.53308 168.339 6.65237 168.339 8.03308Z" stroke="black"/>
<path d="M141.555 8.03308V90.4331C141.555 91.8138 142.674 92.9331 144.055 92.9331H159.015C160.396 92.9331 161.515 91.8138 161.515 90.4331V8.03308C161.515 6.65237 160.396 5.53308 159.015 5.53308H144.055C142.674 5.53308 141.555 6.65237 141.555 8.03308Z" stroke="black"/>
<path d="M86.4717 90.8388L86.4747 90.8403C91.5141 93.36 97.2726 94.6131 103.738 94.6131C110.041 94.6131 115.715 93.4411 120.75 91.086L120.753 91.0845C125.887 88.6399 129.922 84.8888 132.851 79.8441C135.787 74.787 137.238 68.4135 137.238 60.7531C137.238 53.254 135.828 47.0021 132.973 42.0261C130.126 36.9825 126.173 33.1915 121.122 30.6659C116.082 28.1462 110.324 26.8931 103.858 26.8931C97.3939 26.8931 91.6363 28.1457 86.5975 30.6644C81.5446 33.1101 77.5914 36.862 74.7437 41.9058C71.889 46.8818 70.4783 53.1338 70.4783 60.6331C70.4783 68.1336 71.8895 74.4243 74.7429 79.4789C77.5892 84.521 81.5003 88.3123 86.4717 90.8388ZM115.267 51.4388L115.268 51.4429C116.282 54.2519 116.798 57.7503 116.798 61.9531C116.798 65.9167 116.322 69.2164 115.387 71.8667C114.454 74.5088 113.07 76.4531 111.255 77.741C109.436 78.9515 107.141 79.5731 104.338 79.5731C100.084 79.5731 96.7973 77.9977 94.4194 74.8545C92.1116 71.6984 90.9183 66.9046 90.9183 60.3931C90.9183 56.3482 91.3947 53.0089 92.3298 50.3595C93.2629 47.7156 94.6461 45.8155 96.4556 44.6091L96.4556 44.6091L96.4594 44.6065C98.3664 43.3098 100.626 42.6531 103.258 42.6531C106.374 42.6531 108.855 43.4306 110.746 44.9435L110.754 44.9503L110.763 44.9568C112.745 46.4052 114.253 48.5531 115.267 51.4388Z" stroke="black"/>
<path d="M45.2635 31.8267L45.2634 31.8268L45.2695 31.8327C47.5422 34.0296 48.717 37.2807 48.717 41.6732C48.717 46.7243 47.4533 50.1871 45.0546 52.211C42.6229 54.2627 38.881 55.3332 33.737 55.3332H21.757V28.4932H34.457C39.5167 28.4932 43.0783 29.6415 45.2635 31.8267ZM21.757 90.4332V71.2132H30.977C39.3358 71.2132 46.3223 70.1287 51.9186 67.939C57.5956 65.749 61.8856 62.4913 64.7525 58.1513C67.6988 53.8124 69.157 48.47 69.157 42.1532C69.157 37.2221 68.3491 32.9119 66.7165 29.2359C65.1662 25.4853 62.8772 22.4168 59.8486 20.0421C56.831 17.5961 53.2104 15.7687 48.9968 14.5531C44.8631 13.3375 40.2149 12.7332 35.057 12.7332H19.257H18.097H3.93701C2.5563 12.7332 1.43701 13.8524 1.43701 15.2332V90.4332C1.43701 91.8139 2.5563 92.9332 3.93701 92.9332H19.257C20.6377 92.9332 21.757 91.8139 21.757 90.4332Z" stroke="black"/>
</svg>
